<?xml version="1.0" encoding="UTF-8" standalone="no"?>
<svg
   xmlns:dc="http://purl.org/dc/elements/1.1/"
   xmlns:cc="http://creativecommons.org/ns#"
   xmlns:rdf="http://www.w3.org/1999/02/22-rdf-syntax-ns#"
   xmlns:svg="http://www.w3.org/2000/svg"
   xmlns="http://www.w3.org/2000/svg"
   xmlns:sodipodi="http://sodipodi.sourceforge.net/DTD/sodipodi-0.dtd"
   xmlns:inkscape="http://www.inkscape.org/namespaces/inkscape"
   id="svg4145"
   version="1.1"
   inkscape:version="0.91 r13725"
   sodipodi:docname="circle_close.svg"
   width="32"
   height="32">
  <metadata
     id="metadata4156">
    <rdf:RDF>
      <cc:Work
         rdf:about="">
        <dc:format>image/svg+xml</dc:format>
        <dc:type
           rdf:resource="http://purl.org/dc/dcmitype/StillImage" />
        <dc:title></dc:title>
      </cc:Work>
    </rdf:RDF>
  </metadata>
  <defs
     id="defs4154" />
  <sodipodi:namedview
     pagecolor="#eeeeee"
     bordercolor="#666666"
     borderopacity="1"
     objecttolerance="10"
     gridtolerance="10"
     guidetolerance="10"
     inkscape:pageopacity="0"
     inkscape:pageshadow="2"
     inkscape:window-width="1280"
     inkscape:window-height="660"
     id="namedview4152"
     showgrid="false"
     inkscape:zoom="13.887577"
     inkscape:cx="6.871784"
     inkscape:cy="18.532714"
     inkscape:window-x="-8"
     inkscape:window-y="-8"
     inkscape:window-maximized="1"
     inkscape:current-layer="svg4145"
     fit-margin-top="1"
     fit-margin-left="1"
     fit-margin-right="1"
     fit-margin-bottom="1" />
  <g
     id="g4147"
     style="fill:#b71c1c;fill-opacity:1"
     transform="matrix(0.93749993,0,0,0.93749993,1,1)">
    <g
       id="g4149"
       style="fill:#b71c1c;fill-opacity:1">
      <path
         id="path1"
         height="32"
         width="32"
         transform="scale(0.04166667,0.04166667)"
         d="m 284.333,203.151 -81.111,81.181 99.687,99.685 -99.758,99.758 81.109,81.074 99.83,-99.685 99.65,99.685 81.109,-81.074 -99.65,-99.758 99.65,-99.685 -81.109,-81.181 -99.65,99.723 z M 384.018,0 C 595.701,5e-6 768,172.264 768,384.017 768,595.738 595.701,768 384.018,768 172.226,768 -4e-6,595.738 0,384.017 -4e-6,172.264 172.226,5e-6 384.018,0 Z"
         style="fill:#b71c1c;fill-opacity:1"
         inkscape:connector-curvature="0" />
    </g>
  </g>
</svg>
