<?xml version="1.0" encoding="UTF-8" standalone="no"?>
<!-- Created with Inkscape (http://www.inkscape.org/) -->

<svg
   xmlns:dc="http://purl.org/dc/elements/1.1/"
   xmlns:cc="http://creativecommons.org/ns#"
   xmlns:rdf="http://www.w3.org/1999/02/22-rdf-syntax-ns#"
   xmlns:svg="http://www.w3.org/2000/svg"
   xmlns="http://www.w3.org/2000/svg"
   xmlns:sodipodi="http://sodipodi.sourceforge.net/DTD/sodipodi-0.dtd"
   xmlns:inkscape="http://www.inkscape.org/namespaces/inkscape"
   width="32.400002"
   height="32"
   viewBox="0 0 32.400003 32.000001"
   id="svg2"
   version="1.1"
   inkscape:version="0.91 r13725"
   sodipodi:docname="meridian_logo.svg">
  <defs
     id="defs4" />
  <sodipodi:namedview
     id="base"
     pagecolor="#424242"
     bordercolor="#000000"
     borderopacity="1"
     inkscape:pageopacity="0"
     inkscape:pageshadow="2"
     inkscape:zoom="8.6797357"
     inkscape:cx="5.4145748"
     inkscape:cy="12.553837"
     inkscape:document-units="px"
     inkscape:current-layer="layer1"
     showgrid="true"
     units="px"
     inkscape:window-width="1280"
     inkscape:window-height="660"
     inkscape:window-x="-8"
     inkscape:window-y="-8"
     inkscape:window-maximized="1"
     fit-margin-bottom="1"
     fit-margin-right="1.4"
     fit-margin-top="1"
     fit-margin-left="1">
    <inkscape:grid
       type="xygrid"
       id="grid4138"
       originx="-8.9999983"
       originy="-9.0000327" />
  </sodipodi:namedview>
  <metadata
     id="metadata7">
    <rdf:RDF>
      <cc:Work
         rdf:about="">
        <dc:format>image/svg+xml</dc:format>
        <dc:type
           rdf:resource="http://purl.org/dc/dcmitype/StillImage" />
        <dc:title></dc:title>
      </cc:Work>
    </rdf:RDF>
  </metadata>
  <g
     inkscape:label="Layer 1"
     inkscape:groupmode="layer"
     id="layer1"
     transform="translate(-8.9999981,-1011.3622)">
    <circle
       style="opacity:1;fill:#ffffff;fill-opacity:0.94117647;stroke:none;stroke-width:1.5;stroke-miterlimit:4;stroke-dasharray:none;stroke-dashoffset:0;stroke-opacity:1"
       id="path4163"
       cx="24.999998"
       cy="1027.3622"
       r="15" />
    <g
       id="g4167"
       transform="matrix(0.62500002,0,0,0.65976991,14.999998,1016.8059)"
       style="fill:#b71c1c;fill-opacity:1">
      <g
         id="g4169"
         transform="translate(0,3.8745608)"
         style="fill:#b71c1c;fill-opacity:1">
        <path
           d="m 14.713,7.083 6.62,0 c -0.471407,1.5833455 -1.766926,2.7370005 -3.31115,2.7370005 -1.543123,0 -2.839943,-1.153655 -3.30885,-2.7370005 z m -14.713,0 6.6200001,0 C 6.1499522,8.6663455 4.8543134,9.8200005 3.3113451,9.8200005 1.7656967,9.8200005 0.47139281,8.6663455 0,7.083 Z M 8.7933695,0 l 3.7473715,0 0,1.137968 4.903673,0 1.169193,0 0,1.2318408 0,2.1666834 1.376393,1.3763743 -0.915394,0 -1.045695,-1.0455561 -1.045394,1.0455561 -0.915495,0 1.376392,-1.3763743 0,-2.1666834 -4.903673,0 0,1.3177826 -1.257794,0 0,10.2475536 5.668069,0 0,1.000025 0.782497,0 0,1.23183 -14.1327451,0 0,-1.23183 0.7825255,0 0,-1.000025 5.6691606,0 0,-10.2475536 -1.2590845,0 0,-1.3177826 -4.994723,0 0,2.1666834 1.3762123,1.3763743 -0.9152851,0 -1.046924,-1.0455561 -1.0442443,1.0455561 -0.9154053,0 1.3763428,-1.377594 0,-3.3973045 0.091179,0 1.0781242,0 4.994723,0 z"
           transform="scale(1.5000234,1.5000234)"
           width="32"
           height="32"
           id="path1"
           inkscape:connector-curvature="0"
           style="fill:#b71c1c;fill-opacity:1" />
      </g>
    </g>
  </g>
</svg>
