<?xml version="1.0" encoding="UTF-8" standalone="no"?>
<svg
   xmlns:dc="http://purl.org/dc/elements/1.1/"
   xmlns:cc="http://creativecommons.org/ns#"
   xmlns:rdf="http://www.w3.org/1999/02/22-rdf-syntax-ns#"
   xmlns:svg="http://www.w3.org/2000/svg"
   xmlns="http://www.w3.org/2000/svg"
   xmlns:sodipodi="http://sodipodi.sourceforge.net/DTD/sodipodi-0.dtd"
   xmlns:inkscape="http://www.inkscape.org/namespaces/inkscape"
   id="svg7203"
   version="1.1"
   inkscape:version="0.91 r13725"
   sodipodi:docname="organisation.svg"
   width="31.999998"
   height="32">
  <metadata
     id="metadata7214">
    <rdf:RDF>
      <cc:Work
         rdf:about="">
        <dc:format>image/svg+xml</dc:format>
        <dc:type
           rdf:resource="http://purl.org/dc/dcmitype/StillImage" />
        <dc:title></dc:title>
      </cc:Work>
    </rdf:RDF>
  </metadata>
  <defs
     id="defs7212" />
  <sodipodi:namedview
     pagecolor="#ffffff"
     bordercolor="#666666"
     borderopacity="1"
     objecttolerance="10"
     gridtolerance="10"
     guidetolerance="10"
     inkscape:pageopacity="0"
     inkscape:pageshadow="2"
     inkscape:window-width="1280"
     inkscape:window-height="660"
     id="namedview7210"
     showgrid="false"
     fit-margin-top="1"
     fit-margin-right="1"
     fit-margin-bottom="1"
     fit-margin-left="1"
     inkscape:zoom="9.44"
     inkscape:cx="26.582561"
     inkscape:cy="10.942932"
     inkscape:window-x="-32000"
     inkscape:window-y="-32000"
     inkscape:window-maximized="0"
     inkscape:current-layer="svg7203" />
  <g
     id="g7205"
     style="fill:#000000;fill-opacity:1"
     transform="matrix(1.000033,0,0,0.93750001,-5.2901637e-4,1)">
    <g
       transform="translate(1.000496,0)"
       id="g7207"
       style="fill:#000000;fill-opacity:1">
      <path
         id="path1"
         height="32"
         width="32"
         transform="scale(0.74999401,0.74999401)"
         d="m 13.982995,32.651007 0,4.680999 4.682999,0 0,-4.680999 z m -8.6509962,-0.211001 0,4.892 4.8939972,0 0,-4.892 z m 29.3336072,-3.108026 0,7.98102 2.667191,0 0,-7.98102 z m -5.333408,0 0,8.009004 2.667207,0 0,-8.009004 z m -15.408203,-5.331975 0,4.74 4.741999,0 0,-4.74 z m -8.5919962,0 0,4.839 4.8399982,0 0,-4.839 z m 29.3336072,-5.334013 0,8.018984 2.667191,0 0,-8.018984 z m -5.333408,0 0,7.979006 2.667207,0 0,-7.979006 z m -16.000203,-2.665989 0,2.666 2.667,0 0,-2.666 z m -5.3329983,0 0,2.666 2.6670003,0 0,-2.666 z m 18.6670013,-2.668027 13.333,0 0,29.334997 -13.333,0 z m -13.334003,-2.665974 0,2.666 2.667,0 0,-2.666 z m -5.3329983,0 0,2.666 2.6670003,0 0,-2.666 z M 10.665997,0 l 2.665998,0 0,5.3340011 2.667,0 2.666999,5.3320009 0,8.000001 2.665999,0 2.666999,2.666001 0,21.335003 -23.998992,0 0,-21.335003 2.6659985,-2.666001 2.6660003,0 0,-8.000001 2.664999,-5.3320009 2.6689992,0 z"
         style="fill:#000000;fill-opacity:1"
         inkscape:connector-curvature="0" />
    </g>
  </g>
</svg>
