<?xml version="1.0" encoding="UTF-8" standalone="no"?>
<svg
   xmlns:dc="http://purl.org/dc/elements/1.1/"
   xmlns:cc="http://creativecommons.org/ns#"
   xmlns:rdf="http://www.w3.org/1999/02/22-rdf-syntax-ns#"
   xmlns:svg="http://www.w3.org/2000/svg"
   xmlns="http://www.w3.org/2000/svg"
   xmlns:sodipodi="http://sodipodi.sourceforge.net/DTD/sodipodi-0.dtd"
   xmlns:inkscape="http://www.inkscape.org/namespaces/inkscape"
   id="svg4136"
   version="1.1"
   inkscape:version="0.91 r13725"
   sodipodi:docname="recent.svg"
   width="18"
   height="15">
  <metadata
     id="metadata4147">
    <rdf:RDF>
      <cc:Work
         rdf:about="">
        <dc:format>image/svg+xml</dc:format>
        <dc:type
           rdf:resource="http://purl.org/dc/dcmitype/StillImage" />
        <dc:title></dc:title>
      </cc:Work>
    </rdf:RDF>
  </metadata>
  <defs
     id="defs4145" />
  <sodipodi:namedview
     pagecolor="#ffffff"
     bordercolor="#666666"
     borderopacity="1"
     objecttolerance="10"
     gridtolerance="10"
     guidetolerance="10"
     inkscape:pageopacity="0"
     inkscape:pageshadow="2"
     inkscape:window-width="1280"
     inkscape:window-height="660"
     id="namedview4143"
     showgrid="false"
     fit-margin-top="0"
     fit-margin-left="0"
     fit-margin-right="0"
     fit-margin-bottom="0"
     inkscape:zoom="19.64"
     inkscape:cx="2.3617909"
     inkscape:cy="5.5993487"
     inkscape:window-x="-8"
     inkscape:window-y="-8"
     inkscape:window-maximized="1"
     inkscape:current-layer="svg4136" />
  <g
     id="g4138"
     transform="matrix(0.56250001,0,0,0.56232607,0,-1.497217)"
     style="fill:#424242;fill-opacity:1">
    <g
       transform="translate(0,2.6625424)"
       id="g4140"
       style="fill:#424242;fill-opacity:1">
      <path
         id="path1"
         height="32"
         width="32"
         transform="scale(1.5000234,1.5000234)"
         d="m 11.743,4.4790002 1.354394,0 0,4.4126987 3.535607,0 0,1.3543011 -3.535607,0 -0.677297,0 -0.677097,0 z M 12.420266,0 C 17.342073,6.3025709e-8 21.333,3.9908925 21.333,8.9130908 c 0,4.6405902 -3.546934,8.4480982 -8.075449,8.8699082 l 0,-1.938754 c 3.458334,-0.416711 6.148384,-3.362094 6.148384,-6.9311542 0,-3.8530684 -3.134041,-6.9859765 -6.985669,-6.9859765 -3.8462675,0 -6.9738382,3.1224678 -6.9855579,6.9650452 l 3.6315322,0 L 4.5337849,13.426178 0,8.8921595 l 3.5076842,0 C 3.519464,3.9793621 7.5037694,6.3025709e-8 12.420266,0 Z"
         inkscape:connector-curvature="0"
         style="fill:#424242;fill-opacity:1" />
    </g>
  </g>
</svg>
