<?xml version="1.0" encoding="UTF-8" standalone="no"?>
<svg
   xmlns:dc="http://purl.org/dc/elements/1.1/"
   xmlns:cc="http://creativecommons.org/ns#"
   xmlns:rdf="http://www.w3.org/1999/02/22-rdf-syntax-ns#"
   xmlns:svg="http://www.w3.org/2000/svg"
   xmlns="http://www.w3.org/2000/svg"
   xmlns:sodipodi="http://sodipodi.sourceforge.net/DTD/sodipodi-0.dtd"
   xmlns:inkscape="http://www.inkscape.org/namespaces/inkscape"
   id="svg4136"
   version="1.1"
   inkscape:version="0.91 r13725"
   sodipodi:docname="settings.svg"
   width="21.999998"
   height="21.999989">
  <metadata
     id="metadata4147">
    <rdf:RDF>
      <cc:Work
         rdf:about="">
        <dc:format>image/svg+xml</dc:format>
        <dc:type
           rdf:resource="http://purl.org/dc/dcmitype/StillImage" />
        <dc:title></dc:title>
      </cc:Work>
    </rdf:RDF>
  </metadata>
  <defs
     id="defs4145" />
  <sodipodi:namedview
     pagecolor="#424242"
     bordercolor="#ffffff"
     borderopacity="1"
     objecttolerance="10"
     gridtolerance="10"
     guidetolerance="10"
     inkscape:pageopacity="1"
     inkscape:pageshadow="2"
     inkscape:window-width="1280"
     inkscape:window-height="660"
     id="namedview4143"
     showgrid="false"
     fit-margin-top="1"
     fit-margin-right="1"
     fit-margin-bottom="1"
     fit-margin-left="1"
     inkscape:zoom="4.91"
     inkscape:cx="-0.66829806"
     inkscape:cy="10.293148"
     inkscape:window-x="-8"
     inkscape:window-y="-8"
     inkscape:window-maximized="1"
     inkscape:current-layer="svg4136" />
  <g
     id="g4138"
     style="fill:#ffffff;fill-opacity:1"
     transform="matrix(0.625,0,0,0.625,1,0.99999608)">
    <g
       transform="translate(0,5.8877867e-6)"
       id="g4140"
       style="fill:#ffffff;fill-opacity:1">
      <path
         id="path1"
         height="32"
         width="32"
         transform="scale(0.03730612,0.03730612)"
         d="m 430.141,251.263 c -101.695,-0.657 -184.62,78.364 -185.287,176.47 -0.667,98.08 81.27,178.146 182.841,178.736 101.78,0.657 184.733,-78.284 185.399,-176.43 0.668,-98.12 -81.256,-178.146 -182.953,-178.776 z M 431.767,0.006683 C 470.298,0.288086 507.48,5.75656 542.982,14.8701 l 14.644,93.8579 c 35.918,13.362 69.058,32.005 98.208,55.271 l 92.11,-33.64 c 51.772,51.506 89.955,115.422 109.824,186.737 l -77.116,59.333 c 2.849,17.731 4.71,35.985 4.53,54.548 -0.168,18.777 -2.182,36.924 -5.281,54.829 l 76.352,60.137 c -20.911,71.033 -59.9,134.441 -112.325,185.37 l -91.581,-34.699 c -29.485,22.798 -62.929,40.904 -98.931,53.959 l -15.951,93.79 c -35.682,8.618 -72.878,13.536 -111.394,13.402 -38.476,-0.281 -75.658,-5.723 -111.284,-14.876 l -14.479,-93.818 c -35.932,-13.469 -69.141,-32.099 -98.25,-55.285 l -92.109,33.547 C 58.1769,675.921 19.9941,611.91 0,540.676 L 77.2407,481.41 c -2.9174,-17.865 -4.7382,-36.012 -4.5991,-54.762 0.1671,-18.603 2.2092,-36.817 5.2937,-54.588 L 1.56978,311.856 C 22.44,240.729 61.4844,177.348 113.854,126.526 l 91.748,34.726 c 29.4,-22.972 62.873,-41.079 98.903,-54.133 L 320.303,13.4362 C 356.055,4.75122 393.293,-0.207642 431.767,0.006683 Z"
         style="fill:#ffffff;fill-opacity:1"
         inkscape:connector-curvature="0" />
    </g>
  </g>
</svg>
